# File created by Blade
# Date/Time:  Tue Apr 07 21:36:59 2015
# Frame Rate: 120.000 fps
#------------------------------------------------------
:FULLY-SPECIFIED
:DEGREES
530
root 0.598979 35.069128 9.603703 206.996065 -98.498025 -184.410141
Spine 4.026703 -5.800627 2.324292
Head -55.700738 -3.644492 12.055881
LeftShoulder -9.153139 9.605906 52.132977
LeftArm 115.399250 -72.333673 -96.244226
LeftForeArm -13.656284 -0.000000 31.312895
LeftHand 19.352366 -0.000000 24.173712
LeftHandThumb1 -26.253704 0.000000 33.147579
RightShoulder -4.661801 32.403495 -53.984645
RightArm 21.801638 44.620295 25.922339
RightForeArm 2.677462 0.000000 38.259687
RightHand 23.982153 -0.000000 -29.690318
RightHandThumb1 -24.326973 -0.000000 -32.862282
LeftUpLeg -23.947815 -9.172019 4.185564
LeftLeg 9.169071 -0.000000 -0.000000
LeftFoot 15.895470 14.783829 -12.347765
LeftToeBase -26.306143 -0.000000 0.000000
RightUpLeg -25.864737 6.592980 -0.597786
RightLeg 10.692975 -0.000000 -0.000000
RightFoot 19.466940 -19.712682 -1.288228
RightToeBase -25.835946 -0.000000 0.000000
531
root 0.037490 35.917542 9.696338 205.151019 -99.009996 -183.565112
Spine 3.363900 -6.491540 2.516276
Head -56.937249 -3.594410 11.838560
LeftShoulder -9.827130 11.937349 51.778906
LeftArm 117.772798 -72.731528 -99.517471
LeftForeArm -14.620654 -0.000000 31.368309
LeftHand 20.308443 -0.000000 25.761733
LeftHandThumb1 -26.253704 0.000000 33.147579
RightShoulder -4.903849 29.717371 -54.040064
RightArm 19.401212 43.558281 23.447070
RightForeArm 1.146327 -0.000000 38.423981
RightHand 24.039425 -0.000000 -30.372029
RightHandThumb1 -24.326973 -0.000000 -32.862282
LeftUpLeg -18.167344 -5.579116 2.667521
LeftLeg 0.011979 -0.000000 -0.000000
LeftFoot 27.299546 14.376752 -12.150316
LeftToeBase -20.171874 -0.000000 0.000000
RightUpLeg -19.746399 4.511586 -0.042425
RightLeg 0.992490 -0.000000 -0.000000
RightFoot 30.290929 -17.830373 -1.168644
RightToeBase -21.964355 -0.000000 0.000000
532
root -0.537327 36.754869 9.821804 202.962787 -99.556388 -182.222663
Spine 2.257488 -7.237174 2.764182
Head -57.893851 -3.557000 11.477119
LeftShoulder -10.457729 14.348273 50.945469
LeftArm 120.412651 -72.350798 -103.187146
LeftForeArm -14.625232 -0.000000 32.444532
LeftHand 21.600575 -0.000000 29.577297
LeftHandThumb1 -26.253704 0.000000 33.147579
RightShoulder -4.904853 27.130435 -53.940030
RightArm 17.280476 42.724534 21.823903
RightForeArm 0.079805 0.000000 39.212625
RightHand 23.754868 -0.000000 -31.661118
RightHandThumb1 -24.326973 -0.000000 -32.862282
LeftUpLeg -12.998145 0.237568 0.747674
LeftLeg -7.961651 -0.000000 0.000000
LeftFoot 35.976259 15.628291 -15.186643
LeftToeBase -7.964407 -0.000000 0.000000
RightUpLeg -14.128435 0.129104 0.808557
RightLeg -8.045209 -0.000000 0.000000
RightFoot 40.170319 -15.428895 1.273357
RightToeBase -15.440690 -0.000000 0.000000
533
root -1.083082 37.567426 9.943542 202.139978 -100.313706 -181.782115
Spine 0.416333 -8.074664 3.407571
Head -58.515795 -3.598339 10.842765
LeftShoulder -11.039248 16.284917 49.757316
LeftArm 122.070620 -71.505202 -105.860241
LeftForeArm -13.604495 0.000000 33.835291
LeftHand 23.485326 0.000000 32.136190
LeftHandThumb1 -26.253704 0.000000 33.147579
RightShoulder -4.741773 24.841636 -53.675219
RightArm 15.792985 42.446664 21.034674
RightForeArm -0.848934 -0.000000 40.009144
RightHand 23.242805 -0.000000 -32.943710
RightHandThumb1 -24.326973 -0.000000 -32.862282
LeftUpLeg -9.137752 5.858287 -0.224589
LeftLeg -12.724494 -0.000000 0.000000
LeftFoot 37.573314 24.098979 -23.058308
LeftToeBase -0.686311 -0.000000 0.000000
RightUpLeg -9.752097 -4.187890 1.408596
RightLeg -14.360423 -0.000000 0.000000
RightFoot 43.685335 -19.438833 9.887092
RightToeBase 0.677518 -0.000000 -0.000000
534
root -1.571217 38.377364 9.997220 203.410842 -101.165120 -182.575758
Spine -2.428951 -8.800544 4.303703
Head -59.262662 -3.563407 10.278296
LeftShoulder -11.536678 17.308466 48.526687
LeftArm 120.660643 -71.040011 -105.314965
LeftForeArm -11.395554 -0.000000 35.343966
LeftHand 24.316882 -0.000000 36.580462
LeftHandThumb1 -26.253704 0.000000 33.147579
RightShoulder -4.871615 23.496973 -53.174115
RightArm 15.026451 42.148141 21.139022
RightForeArm -1.499917 -0.000000 40.719499
RightHand 22.472968 0.000000 -33.443099
RightHandThumb1 -24.326973 -0.000000 -32.862282
LeftUpLeg -8.251002 13.632808 -0.507045
LeftLeg -11.256425 -0.000000 0.000000
LeftFoot 34.782879 26.942041 -29.190926
LeftToeBase -0.156207 -0.000000 0.000000
RightUpLeg -8.128956 -8.188191 2.192838
RightLeg -14.160366 -0.000000 0.000000
RightFoot 40.943051 -24.285250 18.454719
RightToeBase 5.782715 -0.000000 -0.000000
535
root -2.019568 39.157117 9.966535 208.457179 -102.140855 -186.377700
Spine -6.301704 -9.198833 5.937049
Head -60.101138 -3.690028 9.918366
LeftShoulder -11.777591 17.556814 47.308815
LeftArm 117.469491 -71.050545 -102.745904
LeftForeArm -7.892173 0.000000 36.305496
LeftHand 24.453849 -0.000000 39.539897
LeftHandThumb1 -26.253704 0.000000 33.147579
RightShoulder -5.191331 23.177782 -52.582662
RightArm 14.798215 41.744874 21.867820
RightForeArm -2.129324 0.000000 40.929278
RightHand 22.344909 -0.000000 -32.791122
RightHandThumb1 -24.326973 -0.000000 -32.862282
LeftUpLeg -9.238285 20.639834 0.305021
LeftLeg -6.687151 -0.000000 0.000000
LeftFoot 40.510673 19.863543 -20.119867
LeftToeBase -3.664825 -0.000000 0.000000
RightUpLeg -8.875863 -12.880101 4.012238
RightLeg -9.334415 -0.000000 0.000000
RightFoot 42.382103 -18.488225 15.805912
RightToeBase -4.209180 -0.000000 0.000000
536
root -2.402976 39.902339 9.932549 212.143647 -103.049711 -188.249134
Spine -10.867554 -9.615463 7.298843
Head -60.871771 -3.794202 9.819759
LeftShoulder -11.525646 16.834731 46.494975
LeftArm 110.468508 -71.977815 -96.460346
LeftForeArm -5.307306 -0.000000 36.651983
LeftHand 24.300755 0.000000 40.660906
LeftHandThumb1 -26.253704 0.000000 33.147579
RightShoulder -5.245177 23.679358 -51.854824
RightArm 14.383960 41.249789 22.474082
RightForeArm -2.604095 -0.000000 40.572690
RightHand 21.851138 -0.000000 -31.131058
RightHandThumb1 -24.326973 -0.000000 -32.862282
LeftUpLeg -10.425717 22.861887 1.699560
LeftLeg -1.541174 -0.000000 0.000000
LeftFoot 43.002388 16.835157 -14.642474
LeftToeBase 8.959838 -0.000000 -0.000000
RightUpLeg -10.690194 -16.151171 5.242916
RightLeg -3.098850 -0.000000 0.000000
RightFoot 46.554043 -11.337935 8.497264
RightToeBase 5.707469 -0.000000 -0.000000
